<svg width="615" height="201" viewBox="0 0 615 201" fill="none" xmlns="http://www.w3.org/2000/svg">
<path d="M36.2344 153.2C29.5677 153.2 23.1677 152.267 17.0344 150.4C11.0344 148.533 5.36771 146 0.0343752 142.8L1.63438 111.8H5.83438L17.8344 147.6L8.63438 141.6L8.03438 139C11.3677 141.267 14.4344 143.067 17.2344 144.4C20.0344 145.733 22.8344 146.667 25.6344 147.2C28.5677 147.733 31.7677 148 35.2344 148C39.7677 148 43.9677 147.067 47.8344 145.2C51.701 143.2 54.7677 140.333 57.0344 136.6C59.301 132.867 60.4344 128.4 60.4344 123.2C60.4344 118.533 59.3677 114.6 57.2344 111.4C55.101 108.2 52.2344 105.333 48.6344 102.8C45.1677 100.267 41.3677 98 37.2344 96L31.4344 92.8C26.501 90.1333 21.7677 87.2 17.2344 84C12.701 80.6667 8.96771 76.5333 6.03438 71.6C3.23438 66.6667 1.83438 60.5333 1.83438 53.2C1.83438 46 3.50104 39.5333 6.83438 33.8C10.301 28.0667 15.301 23.6 21.8344 20.4C28.3677 17.0667 36.301 15.4 45.6344 15.4C52.0344 15.4 57.8344 16.3333 63.0344 18.2C68.3677 19.9333 72.901 22.2 76.6344 25L75.8344 54.8H71.4344L58.8344 20.4L69.2344 24.4L69.6344 29.8C65.7677 26.4667 62.0344 24.1333 58.4344 22.8C54.9677 21.3333 51.0344 20.6 46.6344 20.6C42.101 20.6 38.0344 21.5333 34.4344 23.4C30.8344 25.1333 27.9677 27.7333 25.8344 31.2C23.701 34.6667 22.6344 38.8 22.6344 43.6C22.6344 48.1333 23.701 52.0667 25.8344 55.4C28.101 58.6 31.0344 61.4 34.6344 63.8C38.2344 66.2 42.101 68.5333 46.2344 70.8L52.0344 73.8C57.2344 76.6 62.101 79.6667 66.6344 83C71.301 86.2 75.101 90.2 78.0344 95C81.101 99.8 82.6344 106 82.6344 113.6C82.6344 121.067 81.0344 127.8 77.8344 133.8C74.6344 139.8 69.6344 144.533 62.8344 148C56.0344 151.467 47.1677 153.2 36.2344 153.2ZM93.9094 199.2V194.8L110.909 191.8H125.509L144.309 194.8V199.2H93.9094ZM104.109 199.2C104.376 195.733 104.576 191.6 104.709 186.8C104.843 182 104.909 177 104.909 171.8C105.043 166.6 105.109 161.733 105.109 157.2V102C105.109 97.8667 105.109 94.2 105.109 91C105.109 87.6667 105.043 84.6 104.909 81.8C104.909 78.8667 104.843 75.9333 104.709 73L93.1094 69.6V66L128.909 55.6L131.709 57.6V74V74.8V133.6L131.309 134.4V157.2C131.309 161.733 131.309 166.6 131.309 171.8C131.443 177 131.576 182 131.709 186.8C131.843 191.6 132.109 195.733 132.509 199.2H104.109ZM155.509 153C151.909 153 148.443 152.267 145.109 150.8C141.909 149.333 138.909 147.067 136.109 144C133.443 140.933 130.976 136.933 128.709 132H126.909L128.309 128.6C131.376 132.467 134.109 135.267 136.509 137C139.043 138.6 142.176 139.4 145.909 139.4C149.376 139.4 152.443 138.2 155.109 135.8C157.909 133.267 160.109 129.333 161.709 124C163.443 118.533 164.309 111.533 164.309 103C164.309 90.6 162.576 81.8667 159.109 76.8C155.776 71.6 151.309 69 145.709 69C143.443 69 141.309 69.5333 139.309 70.6C137.309 71.6667 135.376 73.1333 133.509 75C131.776 76.7333 130.109 78.8 128.509 81.2L127.109 77H129.109C131.109 72.6 133.443 68.8 136.109 65.6C138.909 62.4 142.109 59.9333 145.709 58.2C149.443 56.4667 153.509 55.6 157.909 55.6C164.709 55.6 170.643 57.3333 175.709 60.8C180.909 64.2667 184.976 69.4 187.909 76.2C190.843 83 192.309 91.4667 192.309 101.6C192.309 112.133 190.776 121.267 187.709 129C184.643 136.733 180.309 142.667 174.709 146.8C169.243 150.933 162.843 153 155.509 153ZM203.87 150V145.6L220.87 142.8H235.67L254.27 145.6V150H203.87ZM214.07 150C214.337 146.533 214.537 142.4 214.67 137.6C214.804 132.8 214.87 127.8 214.87 122.6C215.004 117.4 215.07 112.6 215.07 108.2V102C215.07 97.8667 215.07 94.2 215.07 91C215.07 87.6667 215.004 84.6 214.87 81.8C214.87 78.8667 214.804 75.9333 214.67 73L203.07 69.6V66L238.87 55.6L241.67 57.6V83.6V84.2V108.2C241.67 112.6 241.67 117.4 241.67 122.6C241.804 127.8 241.937 132.8 242.07 137.6C242.204 142.4 242.404 146.533 242.67 150H214.07ZM240.67 95L237.67 85.6H240.47C242.604 78.8 245.004 73.2 247.67 68.8C250.47 64.4 253.537 61.1333 256.87 59C260.337 56.7333 264.07 55.6 268.07 55.6C272.204 55.6 275.604 56.6667 278.27 58.8C280.937 60.8 282.67 64.0667 283.47 68.6C283.204 73.5333 281.67 77.1333 278.87 79.4C276.204 81.6667 273.07 82.8 269.47 82.8C266.537 82.8 263.804 82.0667 261.27 80.6C258.87 79.1333 256.67 76.5333 254.67 72.8L251.27 66.8L256.67 67.6C253.737 69.7333 250.604 73.3333 247.27 78.4C244.07 83.4667 241.87 89 240.67 95ZM331.692 153C323.559 153 316.159 151.2 309.492 147.6C302.959 143.867 297.692 138.467 293.692 131.4C289.826 124.333 287.892 115.733 287.892 105.6C287.892 94.6667 289.959 85.5333 294.092 78.2C298.226 70.7333 303.626 65.1333 310.292 61.4C316.959 57.5333 324.026 55.6 331.492 55.6C339.092 55.6 345.626 57.1333 351.092 60.2C356.692 63.2667 360.959 67.5333 363.892 73C366.826 78.3333 368.292 84.4667 368.292 91.4C368.292 93.4 368.226 95 368.092 96.2C367.959 97.4 367.692 98.8667 367.292 100.6H298.492V95.6H330.292C335.759 95.6 339.559 94.6667 341.692 92.8C343.826 90.8 344.892 87.0667 344.892 81.6C344.892 76.5333 344.359 72.5333 343.292 69.6C342.226 66.5333 340.692 64.3333 338.692 63C336.826 61.5333 334.559 60.8 331.892 60.8C328.959 60.8 326.226 62.0667 323.692 64.6C321.292 67 319.359 71.1333 317.892 77C316.559 82.7333 315.892 90.6667 315.892 100.8C315.892 108.8 317.092 115.6 319.492 121.2C321.892 126.8 325.159 131.067 329.292 134C333.426 136.8 338.159 138.2 343.492 138.2C348.026 138.2 352.026 137.333 355.492 135.6C359.092 133.733 362.226 131.333 364.892 128.4L367.892 130.8C365.492 136 362.426 140.267 358.692 143.6C354.959 146.8 350.826 149.133 346.292 150.6C341.759 152.2 336.892 153 331.692 153ZM404.647 153C397.58 153 391.78 151 387.247 147C382.847 142.867 380.647 137.2 380.647 130C380.647 125.467 381.78 121.267 384.047 117.4C386.314 113.533 389.98 110 395.047 106.8C400.247 103.467 407.18 100.467 415.847 97.8C418.247 97.1333 421.047 96.3333 424.247 95.4C427.58 94.4667 431.047 93.5333 434.647 92.6C438.38 91.6667 441.914 90.7333 445.247 89.8V94.2C440.18 95.6667 435.514 97.0667 431.247 98.4C427.114 99.6 424.047 100.667 422.047 101.6C418.714 103.2 415.847 105 413.447 107C411.047 109 409.18 111.4 407.847 114.2C406.514 116.867 405.847 120.133 405.847 124C405.847 129.333 407.047 133.267 409.447 135.8C411.847 138.2 414.847 139.4 418.447 139.4C420.447 139.4 422.314 139.133 424.047 138.6C425.78 137.933 427.647 136.933 429.647 135.6C431.647 134.133 433.98 132.133 436.647 129.6L438.247 137.6H432.247C429.58 141.333 426.78 144.333 423.847 146.6C421.047 148.867 418.047 150.467 414.847 151.4C411.78 152.467 408.38 153 404.647 153ZM451.047 152.8C444.647 152.8 439.78 151.4 436.447 148.6C433.114 145.667 431.18 141.867 430.647 137.2V136.4V86.8C430.647 80.2667 430.18 75.2 429.247 71.6C428.314 67.8667 426.78 65.2 424.647 63.6C422.514 62 419.514 61.2 415.647 61.2C413.647 61.2 411.647 61.4667 409.647 62C407.78 62.5333 406.047 63.2 404.447 64L410.247 58.6L408.847 73C408.714 79.2667 407.247 83.6 404.447 86C401.647 88.2667 398.647 89.4 395.447 89.4C392.38 89.4 389.914 88.6667 388.047 87.2C386.314 85.6 384.98 83.2667 384.047 80.2C384.847 72.8667 388.78 66.9333 395.847 62.4C403.047 57.8667 412.514 55.6 424.247 55.6C431.98 55.6 438.247 56.8667 443.047 59.4C447.98 61.8 451.58 65.6 453.847 70.8C456.114 76 457.247 82.6667 457.247 90.8V135.6C457.247 137.6 457.647 139.133 458.447 140.2C459.247 141.133 460.247 141.6 461.447 141.6C462.914 141.6 464.114 141.267 465.047 140.6C466.114 139.933 467.314 138.733 468.647 137L471.447 139.2C469.847 143.333 467.314 146.667 463.847 149.2C460.38 151.6 456.114 152.8 451.047 152.8ZM513.122 153C506.322 153 500.322 151.267 495.122 147.8C490.055 144.2 486.055 139 483.122 132.2C480.189 125.267 478.722 116.867 478.722 107C478.722 96.3333 480.389 87.2 483.722 79.6C487.055 71.8667 491.522 65.9333 497.122 61.8C502.855 57.6667 509.389 55.6 516.722 55.6C520.455 55.6 523.855 56.3333 526.922 57.8C530.122 59.1333 533.055 61.3333 535.722 64.4C538.389 67.4667 540.789 71.4667 542.922 76.4H545.322L542.922 79.8C539.722 75.9333 536.922 73.2 534.522 71.6C532.122 69.8667 529.055 69 525.322 69C521.989 69 518.855 70.2 515.922 72.6C513.122 75 510.855 78.8667 509.122 84.2C507.522 89.5333 506.722 96.6 506.722 105.4C506.722 113.933 507.455 120.667 508.922 125.6C510.522 130.533 512.722 134.067 515.522 136.2C518.455 138.333 521.722 139.4 525.322 139.4C528.789 139.4 531.922 138.267 534.722 136C537.522 133.6 540.122 130.667 542.522 127.2L543.922 131.4H542.122C540.122 135.8 537.722 139.667 534.922 143C532.122 146.2 528.922 148.667 525.322 150.4C521.722 152.133 517.655 153 513.122 153ZM539.322 152.6V134.8V134V74.2L539.722 72V20.2L527.922 17V13.4L564.122 3.8L566.722 5.99999L565.922 47V144L576.322 145.6V150L539.322 152.6ZM603.111 200.4V0.399995H614.311V200.4H603.111Z" fill="white"/>
</svg>
