<svg width="64" height="64" viewBox="0 0 64 64" fill="none" xmlns="http://www.w3.org/2000/svg">
<rect width="64" height="64" rx="17" fill="#D9D9D9"/>
<path d="M43.4844 54.9331V10H46.0006V54.9331H43.4844Z" fill="black"/>
<path d="M26.1329 44.3289C24.6351 44.3289 23.1973 44.1192 21.8193 43.6998C20.4713 43.2805 19.1982 42.7113 18 41.9924L18.3595 35.0278H19.3031L21.9991 43.0708L19.9321 41.7228L19.7973 41.1387C20.5462 41.6479 21.2352 42.0523 21.8642 42.3518C22.4933 42.6514 23.1224 42.8611 23.7514 42.9809C24.4105 43.1007 25.1294 43.1606 25.9082 43.1606C26.9267 43.1606 27.8703 42.951 28.739 42.5316C29.6077 42.0823 30.2967 41.4382 30.8059 40.5995C31.3152 39.7607 31.5698 38.7572 31.5698 37.5889C31.5698 36.5405 31.3302 35.6568 30.8509 34.9379C30.3716 34.219 29.7275 33.5749 28.9187 33.0058C28.1399 32.4366 27.2862 31.9274 26.3576 31.478L25.0545 30.7591C23.9462 30.16 22.8827 29.501 21.8642 28.7821C20.8458 28.0332 20.007 27.1045 19.348 25.9962C18.7189 24.8878 18.4044 23.5099 18.4044 21.8624C18.4044 20.2448 18.7788 18.7919 19.5277 17.5038C20.3066 16.2158 21.4299 15.2123 22.8977 14.4933C24.3655 13.7444 26.1479 13.37 28.2448 13.37C29.6826 13.37 30.9857 13.5797 32.1539 13.9991C33.3521 14.3885 34.3706 14.8977 35.2094 15.5268L35.0297 22.2218H34.0411L31.2103 14.4933L33.5469 15.392L33.6367 16.6052C32.768 15.8563 31.9293 15.3321 31.1205 15.0325C30.3416 14.703 29.4579 14.5383 28.4694 14.5383C27.4509 14.5383 26.5373 14.7479 25.7285 15.1673C24.9197 15.5567 24.2757 16.1409 23.7964 16.9197C23.3171 17.6986 23.0774 18.6272 23.0774 19.7056C23.0774 20.724 23.3171 21.6077 23.7964 22.3566C24.3056 23.0755 24.9646 23.7046 25.7734 24.2438C26.5822 24.783 27.4509 25.3072 28.3796 25.8165L29.6826 26.4905C30.8509 27.1195 31.9442 27.8085 32.9627 28.5574C34.0112 29.2763 34.8649 30.175 35.5239 31.2534C36.2129 32.3318 36.5574 33.7247 36.5574 35.4321C36.5574 37.1097 36.1979 38.6224 35.479 39.9704C34.7601 41.3184 33.6367 42.3818 32.109 43.1606C30.5813 43.9395 28.5892 44.3289 26.1329 44.3289Z" fill="black"/>
</svg>
